<svg version="1.1" id="Layer_1" xmlns="http://www.w3.org/2000/svg" xmlns:xlink="http://www.w3.org/1999/xlink" x="0px" y="0px"
	 width="100%" viewBox="0 0 509 481" enable-background="new 0 0 509 481" xml:space="preserve">
<path fill="#FDFDFD" opacity="1.000000" stroke="none" 
	d="
M342.000000,482.000000 
	C228.000031,482.000000 114.500053,482.000000 1.000061,482.000000 
	C1.000041,321.666718 1.000041,161.333466 1.000020,1.000147 
	C170.666565,1.000098 340.333130,1.000098 509.999756,1.000049 
	C509.999847,161.333191 509.999847,321.666382 509.999939,481.999786 
	C454.166656,482.000000 398.333344,482.000000 342.000000,482.000000 
M120.697472,128.525909 
	C110.269768,128.808624 100.268524,131.049377 90.659012,135.079163 
	C48.995323,152.550980 39.830223,203.799973 59.702530,236.482147 
	C73.628845,259.385498 95.561134,269.095947 121.481522,269.909912 
	C144.291183,270.626190 167.140778,269.994415 189.967880,270.310486 
	C193.567001,270.360321 197.613113,271.543762 200.623383,273.487366 
	C206.236893,277.111786 208.046371,285.788391 205.604630,292.920654 
	C203.659805,298.601440 198.060028,302.109070 190.428406,302.117249 
	C165.264664,302.144196 140.100830,302.083954 114.937042,302.062408 
	C94.491638,302.044922 77.625328,309.687897 65.109390,325.986633 
	C56.997185,336.550659 52.728821,348.563477 53.026428,362.536530 
	C55.001041,362.625671 56.617268,362.762085 58.233517,362.762421 
	C103.895790,362.772034 149.559158,362.926208 195.219315,362.614777 
	C203.098526,362.561035 211.167511,361.290863 218.802872,359.273285 
	C265.741943,346.870087 280.027557,296.037231 262.625000,259.781311 
	C249.790207,233.041748 226.697357,221.337784 198.041626,220.270187 
	C176.239777,219.457962 154.389435,219.964005 132.560989,219.830612 
	C129.738342,219.813370 126.746323,220.002350 124.142059,219.150391 
	C121.279373,218.213867 118.121651,216.736877 116.243591,214.520126 
	C111.729881,209.192383 111.900146,202.692657 114.295166,196.561523 
	C116.567101,190.745468 121.925644,189.058258 127.697357,188.657822 
	C129.688110,188.519684 131.695480,188.613144 133.695267,188.614410 
	C208.521088,188.661545 283.346924,188.708878 358.172729,188.762421 
	C362.504883,188.765518 366.857574,188.561356 371.165009,188.903275 
	C381.626678,189.733704 390.151917,194.146118 394.947113,203.826752 
	C403.768341,221.635300 395.895630,248.580688 368.406250,248.387726 
	C343.243256,248.211060 318.078033,248.344345 292.913818,248.373566 
	C291.028503,248.375748 289.143524,248.639175 286.555176,248.834137 
	C294.692108,266.432648 296.652618,284.272339 295.075317,302.985718 
	C297.451630,303.104767 299.245819,303.271698 301.040070,303.272217 
	C313.372040,303.275696 325.708008,303.415131 338.033661,303.125916 
	C342.021729,303.032349 344.481140,304.465576 346.833801,307.483032 
	C360.244476,324.683105 373.878296,341.709473 387.252960,358.937164 
	C389.424957,361.734894 391.639771,362.868958 395.164948,362.849304 
	C419.161804,362.715515 443.159821,362.787842 467.157440,362.768555 
	C468.563202,362.767426 469.968781,362.548401 472.412903,362.343903 
	C452.640991,339.302582 433.510162,317.008423 414.238617,294.550232 
	C415.305908,293.577942 415.919922,292.751678 416.740814,292.309509 
	C442.509735,278.428894 457.446991,256.939728 460.805054,227.939865 
	C464.358704,197.250961 456.164032,170.359695 432.077911,149.856277 
	C414.209808,134.645966 392.807648,128.529358 369.630219,128.506256 
	C286.971619,128.423874 204.312881,128.476364 120.697472,128.525909 
z"/>
<path fill="#040404" opacity="1.000000" stroke="none" 
	d="
M121.175827,128.501862 
	C204.312881,128.476364 286.971619,128.423874 369.630219,128.506256 
	C392.807648,128.529358 414.209808,134.645966 432.077911,149.856277 
	C456.164032,170.359695 464.358704,197.250961 460.805054,227.939865 
	C457.446991,256.939728 442.509735,278.428894 416.740814,292.309509 
	C415.919922,292.751678 415.305908,293.577942 414.238617,294.550232 
	C433.510162,317.008423 452.640991,339.302582 472.412903,362.343903 
	C469.968781,362.548401 468.563202,362.767426 467.157440,362.768555 
	C443.159821,362.787842 419.161804,362.715515 395.164948,362.849304 
	C391.639771,362.868958 389.424957,361.734894 387.252960,358.937164 
	C373.878296,341.709473 360.244476,324.683105 346.833801,307.483032 
	C344.481140,304.465576 342.021729,303.032349 338.033661,303.125916 
	C325.708008,303.415131 313.372040,303.275696 301.040070,303.272217 
	C299.245819,303.271698 297.451630,303.104767 295.075317,302.985718 
	C296.652618,284.272339 294.692108,266.432648 286.555176,248.834137 
	C289.143524,248.639175 291.028503,248.375748 292.913818,248.373566 
	C318.078033,248.344345 343.243256,248.211060 368.406250,248.387726 
	C395.895630,248.580688 403.768341,221.635300 394.947113,203.826752 
	C390.151917,194.146118 381.626678,189.733704 371.165009,188.903275 
	C366.857574,188.561356 362.504883,188.765518 358.172729,188.762421 
	C283.346924,188.708878 208.521088,188.661545 133.695267,188.614410 
	C131.695480,188.613144 129.688110,188.519684 127.697357,188.657822 
	C121.925644,189.058258 116.567101,190.745468 114.295166,196.561523 
	C111.900146,202.692657 111.729881,209.192383 116.243591,214.520126 
	C118.121651,216.736877 121.279373,218.213867 124.142059,219.150391 
	C126.746323,220.002350 129.738342,219.813370 132.560989,219.830612 
	C154.389435,219.964005 176.239777,219.457962 198.041626,220.270187 
	C226.697357,221.337784 249.790207,233.041748 262.625000,259.781311 
	C280.027557,296.037231 265.741943,346.870087 218.802872,359.273285 
	C211.167511,361.290863 203.098526,362.561035 195.219315,362.614777 
	C149.559158,362.926208 103.895790,362.772034 58.233517,362.762421 
	C56.617268,362.762085 55.001041,362.625671 53.026428,362.536530 
	C52.728821,348.563477 56.997185,336.550659 65.109390,325.986633 
	C77.625328,309.687897 94.491638,302.044922 114.937042,302.062408 
	C140.100830,302.083954 165.264664,302.144196 190.428406,302.117249 
	C198.060028,302.109070 203.659805,298.601440 205.604630,292.920654 
	C208.046371,285.788391 206.236893,277.111786 200.623383,273.487366 
	C197.613113,271.543762 193.567001,270.360321 189.967880,270.310486 
	C167.140778,269.994415 144.291183,270.626190 121.481522,269.909912 
	C95.561134,269.095947 73.628845,259.385498 59.702530,236.482147 
	C39.830223,203.799973 48.995323,152.550980 90.659012,135.079163 
	C100.268524,131.049377 110.269768,128.808624 121.175827,128.501862 
z"/>
</svg>